<svg id="圖層_1" data-name="圖層 1" xmlns="http://www.w3.org/2000/svg" viewBox="0 0 1199.47 943.56"><path d="M1276.48,196.6c-1,4.68-2.75,9.34-2.86,14-.33,14.86-1.83,29.36-8.1,43.12-5.82,12.79-15.28,21.95-27.37,28.49a62.22,62.22,0,0,1-28.64,7.53c-15,.38-29.55-1.76-44.27-3.93s-29.44-3.93-44.17-3.93c-14.27,0-28.77,2.72-39,14-4.41,4.86-7.12,11.63-9.42,18-5.6,15.4-8.59,31.45-10.16,47.75-1.41,14.72-3,29.44-3.92,44.21-1,17.68-1.45,35.4-2.08,53.11-.39,11.1-.17,22.25-1.11,33.3-1.91,22.32-4.91,44.5-11.22,66.11-4.78,16.4-10.68,32.35-21.64,45.67-6.11,7.42-13.26,14-20.32,20.6C994,632.24,986,640,982.93,651c-2.21,7.81-2.79,16.08-4.48,24.06-3.28,15.45-7.06,30.8-10.2,46.28-3.52,17.41-6.92,34.87-9.72,52.41-4.22,26.48-3.23,53.24-3,79.91.16,16.78,6.87,30.2,20.67,40.89,10.58,8.19,17.56,19.79,16,34.2a13.52,13.52,0,0,1-5.47,8.68,46.08,46.08,0,0,1-24.56,7.32c-8,.15-16.13.63-24.09-.13-12.2-1.17-19.79-9.12-24.93-19.57a155.47,155.47,0,0,1-14.73-46.39c-.48-3.24-.57-6.54-1-9.79-.93-6.3-5.78-10-10.18-13.53-5.28-4.21-7.69-9.65-8.67-15.76-1.15-7.12-1.3-14.39-2.19-21.56a24.21,24.21,0,0,0-3.5-9.64,19,19,0,0,0-.41,2.88c0,15.84-.15,31.67,0,47.51.17,15.6.58,31.21,1,46.81a6.67,6.67,0,0,0,2.06,4.62c15.16,11.58,23.19,27.09,25.9,45.73,1.82,12.52,3.81,12.55-11.58,17.83-21.65,7.43-42.82,4.55-63.11-5.85-5.59-2.86-7.3-8.19-8.12-13.31-1.93-12-2.64-24.12-4.32-36.14-1.3-9.35-2.65-18.8-5.29-27.82-1.35-4.59-5.47-8.43-8.54-12.45-5.83-7.61-8.6-16.51-10-25.68-2.14-14.42-3.61-29-5.08-43.46-.69-6.9-.85-13.87-1-20.81-.42-16.76-.54-33.54-1.09-50.3-.39-12.22-.87-24.46-2.15-36.6-.5-4.68,1-10.71-4.56-13.8-3.33-1.85-6.93-4.58-10.41-4.57C748,683,730.9,678,714.51,671c-21-8.93-41.45-19.3-62.22-28.87-16.3-7.5-32.4-15.61-49.18-21.85-18.21-6.78-37.37-7.73-56.84-5.85a179.73,179.73,0,0,0-46.21,10.29c-15.31,5.74-27.55,15.69-37.76,28.34-7.94,9.84-16.22,19.41-24,29.35-8.28,10.54-16,21.5-24.28,32.07-9.62,12.33-22,21.42-35.26,29.54-16,9.81-32.07,19.49-47.65,29.9-13.39,9-22.07,22.08-27.49,37a216.51,216.51,0,0,0-9.83,34.67c-2.4,13.17.95,25.73,8.81,36.84,5.66,8,11.79,15.71,16.85,24.07,4.53,7.49,7.92,15.63,6,24.92-1.24,6.05-5.72,9.27-10.67,11.34a83.29,83.29,0,0,1-19,5.8,90.71,90.71,0,0,1-33.88-.68c-11-2.46-15.75-5.53-17.16-17-1.73-14.18-7.76-26.22-15.62-37.49-4.58-6.57-6-13.8-6.55-21.21-.87-10.9-1.09-21.86-1.07-32.8,0-12.6.5-25.21,1-37.81.19-4.87.94-9.72.36-15.71-6,4-12.43,7.6-18,12.18-12.34,10.13-24.38,20.62-36.32,31.22-11.15,9.89-16.82,22.37-18.29,37.35-1.36,13.94-1.49,27.82,1.51,41.34,1.51,6.84,5.77,13.34,9.85,19.28,6.78,9.89,13.09,19.91,16.3,31.56,4.55,16.54-8.93,32.6-23.78,32.3-15-.31-29.57-1.43-43-8.43-15.46-8-26.42-20.34-32.17-36.9-2.78-8-2.28-16.21.18-24.25,2.8-9.17,6.1-18.21,8.51-27.48a88.72,88.72,0,0,0,2.68-18.42c.65-15.42.49-30.88,1.19-46.3.58-12.65,1.7-25.29,3-37.89,1.22-11.9,9.26-19,18.36-25.62,10.45-7.63,20.34-16,30.29-24.32a226,226,0,0,0,46.14-53.1,218.49,218.49,0,0,0,27.14-62c8.66-32.88,16.75-65.92,26.15-98.59,6.08-21.14,17.29-39.68,32.77-55.73,10.43-10.83,21.4-21.55,27.7-35.62,5.63-12.61,9.28-25.71,4-39.39-4.71-12.22-13.32-22-23.79-29.13-18.14-12.43-37.34-23.31-55.81-35.29a230.94,230.94,0,0,1-42.91-35.4c-20.71-22.06-36.62-47.06-46.38-76-7.53-22.3-9.39-45.25-7.46-68.27,2-23.79,10.1-46,22.24-66.78,5.66-9.71,11-19.45,19.45-27,7.06-6.3,14.84-11,24.71-11.64,7.56-.48,10.33,5.74,9.1,11.39C203.76,70,200.56,81,198.24,92.11c-2.92,14-5.73,28.13-7.76,42.32C187,159,191.65,182.28,202.32,204.6c9.14,19.13,23.13,33.79,40.84,44.86,16.45,10.28,33.28,20,50.17,29.54,28.26,16,57.46,30.44,83.76,49.68,8.79,6.43,16.38,14.51,25.17,20.94a39.86,39.86,0,0,0,15.93,6.8c16.13,2.94,32.42,2,48.66.28,4.59-.48,9.2-.8,13.8-1,7.77-.4,15.54-.7,23.31-1,16-.68,32.08-1.2,48.11-2.06,14.81-.79,29.63-1.71,44.41-3,15.2-1.35,30.33-3.4,45.52-4.87a504.49,504.49,0,0,0,83.27-15.1c23.21-6.28,45.93-14,65.8-28a284.68,284.68,0,0,0,24.86-20.07c21.83-19.4,39.07-42.64,55.84-66.38q19.38-27.45,40.51-53.64c13.94-17.28,28.52-34.09,43.48-50.51,11.78-12.93,27-21.18,43.19-27.37a178.39,178.39,0,0,1,49.44-11.28,142.32,142.32,0,0,1,52.89,6c16.14,4.85,31.77,11.65,47.25,18.44,14.51,6.38,24.33,17.53,30.4,32.4a102.27,102.27,0,0,0,12.46,21.58c5.22,7.07,13.5,10.53,21.7,12.71,11.46,3,23.25,4.8,34.89,7.19,7.94,1.62,15.91,3.2,23.76,5.19,1.79.45,3.17,2.49,4.74,3.79Z" transform="translate(-77.02 -47.47)"/></svg>