<svg id="圖層_1" data-name="圖層 1" xmlns="http://www.w3.org/2000/svg" viewBox="0 0 602.28 255.93"><defs><style>.cls-1,.cls-2,.cls-4,.cls-5{fill:none;}.cls-1,.cls-2,.cls-3,.cls-4,.cls-5,.cls-6{stroke:#fff;}.cls-1,.cls-6{stroke-miterlimit:10;}.cls-1,.cls-2,.cls-3{stroke-width:10px;}.cls-2,.cls-3,.cls-4,.cls-5{stroke-linecap:round;stroke-linejoin:round;}.cls-3,.cls-6{fill:#fff;}.cls-4{stroke-width:9px;}.cls-5{stroke-width:5px;}.cls-6{stroke-width:4px;}</style></defs><path class="cls-1" d="M718.31,486.86s-59.13-58.3-53-99.88,71.45-1.22,71.45-1.22,40.65,31.55,46.64,42.47c0,0,20-6.14,20.72-4.25,5.4,14.81,16.06,72.82-39.44,96,0,0-15.15-22.22-41-25.17C723.61,494.8,717.79,495.12,718.31,486.86Z" transform="translate(-659.85 -351.24)"/><path class="cls-2" d="M718.31,486.86s-1.22-28.7,47.17-51.6,91.81-13,91.81-13,38.14,15.8,43.68,35c0,0-25.94,4.61-28.7,48,0,0,.21,18.65,23.8,36.07,0,0,18.39,14.36-6.68,40,0,0-8.67,10.4-29.86,10.71,0,0-23.59-1.48-32.48-25.66,0,0,30.53-23.34,21.67-32.93,0,0-41.57-6.72-40,4.84,0,0,2.85,19.4,18,28.15l-50,30.47S745,614.75,738,584.48c0,0-1.79-11.92,20.53-33.32,0,0,8.26-7.95,6.12-31.19" transform="translate(-659.85 -351.24)"/><path class="cls-2" d="M804.1,424s13.62,37.08,34.08-3.76c0,0-8.71,84.16,34.09,85.08" transform="translate(-659.85 -351.24)"/><path class="cls-2" d="M857.29,422.27s22.76-48.44,82-62.19c0,0,32-16.06,17.27,17.54,0,0-17.34,54.48-56.59,79.65" transform="translate(-659.85 -351.24)"/><path class="cls-2" d="M918.87,463.89s39.7,21.62,9.81,63" transform="translate(-659.85 -351.24)"/><path class="cls-2" d="M709.19,505.3C693,536,715,557.23,727.17,562.66" transform="translate(-659.85 -351.24)"/><path class="cls-3" d="M905.89,485.66s16,.82,9.17,14.13c0,0-4.65,8.24-12.48,7.41,0,0-6.27-2.47-6.06-11.28C896.52,495.92,896.7,485.9,905.89,485.66Z" transform="translate(-659.85 -351.24)"/><path class="cls-3" d="M727.87,519.58s11.28-3.3,16,2.26c0,0,6.69,8.87-4.23,13.79,0,0-4.6,4.28-10,1.46C729.59,537.09,716.32,529.05,727.87,519.58Z" transform="translate(-659.85 -351.24)"/><path class="cls-4" d="M1227.64,552c-2.78,1.46-8-4.61-9.09-8.1-1.47-4.63,3.5-9,6.26-12.29,2.18-2.63,5.93-2.61,8.5-1.79,2.32.74,5.72,5.34,5.51,5.73,2.86-2.06,4.47-2.52,7.68-2.35,10.37.56,14.66,12.33,7.82,18-.83.7-3.32,1.32-4.34,1.74-.41.16-3.35,1.7-3.14,1.1-2.39,6.8.05,9-2.33,15.75,5.39.63,8.14,6.17,7.45,10.88s-7.68,9.69-13.11,8.35a12.17,12.17,0,0,1-8-6.51,4,4,0,0,1-1.49,1c-4.15,2.08-10.57,4.32-13.91-.15a26,26,0,0,1-2.56-5.5c-.81-2.14.33-5.45,1.85-7.61.45-.64,2.43-3.09,3.33-3,2,.19,2.21-.1,4,.5.6.2,1.41-.17,1.72-.1C1225.26,561.08,1226.66,558.6,1227.64,552Z" transform="translate(-659.85 -351.24)"/><path class="cls-5" d="M1232.09,569.77" transform="translate(-659.85 -351.24)"/><path class="cls-6" d="M1021,566.86q0,7.7-6.75,12.79a21.46,21.46,0,0,1-13.27,4.22,32.12,32.12,0,0,1-8.69-1.39c-.36,1.91-1.33,2.86-2.92,2.86a2.54,2.54,0,0,1-2.51-1.5,11.83,11.83,0,0,1-.68-4.72q0-6.9,1.86-30.87l.24-3.33a36.49,36.49,0,0,1,1-7,2.88,2.88,0,0,1,2.89-2.21c1.79,0,2.24.71,2.68,3.57,0-.68.22,2.7-1,10.6-1.31,8.23-1.23,17.16-1.45,26.58a31.21,31.21,0,0,0,9.05,1.56,14.21,14.21,0,0,0,9.7-3.28,10.1,10.1,0,0,0,3.63-7.91q0-9.24-12.74-9.24l-1.34,0-1.37,0c-1.81,0-2.71-.83-2.71-2.48a2.38,2.38,0,0,1,1.5-2.42,9,9,0,0,1,2.6-.53,26.27,26.27,0,0,0,2.86-.38,6.76,6.76,0,0,0,4-2.87,9.36,9.36,0,0,0,1.55-5.41,7.7,7.7,0,0,0-3.57-6.77q-3.57-2.4-10.2-2.4a25.51,25.51,0,0,0-9.79,2.18L983,537.79a7.13,7.13,0,0,1-2.63.62,2.62,2.62,0,0,1-1.9-.74,2.36,2.36,0,0,1-.75-1.74q0-1.62,2.89-3.3a31.3,31.3,0,0,1,16.07-3.92q8.67,0,13.74,3.92a12.5,12.5,0,0,1,5,10.38,13.23,13.23,0,0,1-4.48,10.14,14,14,0,0,1,7.41,5.13A14.17,14.17,0,0,1,1021,566.86Z" transform="translate(-659.85 -351.24)"/><path class="cls-6" d="M1082.68,584.27c0,1.93-.92,2.89-2.77,2.89-1.29,0-2.72-1.21-4.27-3.62q-1.71-2.68-5.57-10.68-11.27-.17-25.48-5.24-11.33,11.82-15.42,11.82a2.57,2.57,0,0,1-1.86-.78,2.53,2.53,0,0,1-.79-1.87c0-.81.65-1.73,2-2.76l3.9-3.08a67.41,67.41,0,0,0,6.34-5.75c-3.38-1.34-5.07-2.71-5.07-4.13a3,3,0,0,1,.8-2.08,2.5,2.5,0,0,1,1.91-.87,7.2,7.2,0,0,1,2.69.83c2.08.94,3.32,1.48,3.71,1.64q11.88-15.58,13.36-22.75c.27-1.63.56-3.27.85-4.92a2.59,2.59,0,0,1,2.77-1.83,2.37,2.37,0,0,1,2.42,1.5,11.87,11.87,0,0,1,.59,2.68,25.78,25.78,0,0,0,.5,3.1q2.8,11.4,10.85,28.66c.9,0,1.78-.07,2.62-.15l1.18-.09q3.28,0,3.28,3t-3.39,3.06h-.86c.77,1.57,2.09,4,4,7.22C1082.09,582.07,1082.68,583.49,1082.68,584.27ZM1067.3,567a168.81,168.81,0,0,1-8.22-21.75,84.66,84.66,0,0,1-10.57,17.61A72,72,0,0,0,1067.3,567Z" transform="translate(-659.85 -351.24)"/><path class="cls-6" d="M1140.24,566.42c0,5.43-1.35,10.88-5,12.09v.12q-4.49,2.76-13.53,2.77-13.34,0-21-1.62a9.21,9.21,0,0,1-3.22-1.15,2.64,2.64,0,0,1-1-2.24c0-1.54,1-2.3,3.12-2.3a21.4,21.4,0,0,1,3.87.44q-.88-9.71-.89-16.48a195.75,195.75,0,0,1,1.51-23.68l-1.45.12h-.23c-1.83,0-2.75-.88-2.75-2.65a2.81,2.81,0,0,1,1.71-2.77,13.18,13.18,0,0,1,5.19-.74,23.67,23.67,0,0,1,9.17,1.44q3.11,1.37,3.1,3.51a2.91,2.91,0,0,1-.84,2.07,2.57,2.57,0,0,1-1.9.88,7.19,7.19,0,0,1-2.51-.85,10.65,10.65,0,0,0-3.33-1.06,157.55,157.55,0,0,0-1.83,23.67q0,5.16,1.15,17.25a109,109,0,0,0,11,.73q7.34,0,11.64-2.59c.83-1,1.46-3.08,1.89-6.1a15.82,15.82,0,0,1,.79-3.75,2.36,2.36,0,0,1,2.33-1.27Q1140.24,562.26,1140.24,566.42Z" transform="translate(-659.85 -351.24)"/><path class="cls-6" d="M1201.31,555.58q0,27.12-35.09,27.12c-2,0-4.08-.08-6.16-.26-.55,1.69-1.51,2.53-2.89,2.53a3.08,3.08,0,0,1-2-.64,2,2,0,0,1-.81-1.57,38.88,38.88,0,0,1,1-6.9c1-4.92,1-10.18,1-15.61a170.66,170.66,0,0,0-1.38-22.09,2.88,2.88,0,0,1-2.66-3,2.92,2.92,0,0,1,1.92-2.66l-.06-.45a1,1,0,0,0,0-.22,1,1,0,0,1,0-.19c0-1.69,1-2.53,2.92-2.53a2.61,2.61,0,0,1,2.89,2.18,58.64,58.64,0,0,1,11.35-1.21q14.39,0,22.2,6.65T1201.31,555.58Zm-6.29.31q0-9.75-6.1-14.89t-17.69-5.14a57.08,57.08,0,0,0-10.43,1.21,180.54,180.54,0,0,1,1.5,23.12,121.1,121.1,0,0,1-1.09,16.53c.92.08,2.21.12,3.86.12q13.22,0,19.64-2.89Q1195,569.27,1195,555.89Z" transform="translate(-659.85 -351.24)"/></svg>