<svg id="圖層_2" data-name="圖層 2" xmlns="http://www.w3.org/2000/svg" xmlns:xlink="http://www.w3.org/1999/xlink" viewBox="0 0 370.84 151.23"><defs><style>.cls-1{fill:none;}.cls-2{fill:#f8c6bb;}.cls-3{fill:#9acd86;}.cls-4{fill:#fff100;}.cls-5{fill:#00a0e9;}.cls-6{stroke:#eeb3a5;stroke-miterlimit:10;fill:url(#新增圖樣色票_3);}</style><pattern id="新增圖樣色票_3" data-name="新增圖樣色票 3" width="130.74" height="89.29" patternTransform="translate(-133.74 -72.92)" patternUnits="userSpaceOnUse" viewBox="0 0 130.74 89.29"><rect class="cls-1" width="130.74" height="89.29"/><rect class="cls-2" x="8.39" y="6.51" width="117" height="79"/><circle class="cls-3" cx="11.5" cy="38.33" r="1.02"/><path class="cls-3" d="M31.21,40.19a5.82,5.82,0,1,1-11.63,0c0-3.21,2.6-11.78,5.81-11.78S31.21,37,31.21,40.19Z"/><path class="cls-3" d="M38.72,35a5.81,5.81,0,1,1-10.07,5.81C27.05,38,25,29.31,27.8,27.71S37.12,32.23,38.72,35Z"/><path class="cls-3" d="M42.64,26.76a5.81,5.81,0,1,1-5.81,10.07c-2.78-1.61-8.9-8.15-7.3-10.93S39.86,25.15,42.64,26.76Z"/><path class="cls-3" d="M41.91,17.65a5.82,5.82,0,0,1,0,11.63c-3.21,0-11.78-2.6-11.78-5.81S38.7,17.65,41.91,17.65Z"/><path class="cls-3" d="M36.72,10.13A5.82,5.82,0,1,1,42.54,20.2c-2.78,1.61-11.51,3.64-13.11.86S33.94,11.74,36.72,10.13Z"/><path class="cls-3" d="M28.47,6.22A5.81,5.81,0,1,1,38.54,12c-1.6,2.78-8.14,8.9-10.92,7.3S26.87,9,28.47,6.22Z"/><path class="cls-3" d="M19.37,7A5.82,5.82,0,1,1,31,7c0,3.21-2.61,11.78-5.82,11.78S19.37,10.16,19.37,7Z"/><path class="cls-3" d="M11.85,12.13A5.81,5.81,0,0,1,21.92,6.32c1.61,2.78,3.64,11.51.86,13.11S13.46,14.91,11.85,12.13Z"/><path class="cls-3" d="M7.93,20.38a5.82,5.82,0,0,1,5.82-10.07c2.78,1.61,8.9,8.15,7.3,10.93S10.71,22,7.93,20.38Z"/><path class="cls-3" d="M8.67,29.49a5.82,5.82,0,1,1,0-11.63c3.21,0,11.78,2.6,11.78,5.81S11.88,29.49,8.67,29.49Z"/><path class="cls-3" d="M13.85,37A5.81,5.81,0,1,1,8,26.94c2.78-1.61,11.5-3.64,13.11-.86S16.63,35.4,13.85,37Z"/><path class="cls-3" d="M22.1,40.92A5.81,5.81,0,1,1,12,35.11c1.61-2.78,8.15-8.9,10.93-7.3S23.71,38.14,22.1,40.92Z"/><circle class="cls-4" cx="51.24" cy="37.19" r="1.02"/><path class="cls-4" d="M70.94,39.06a5.81,5.81,0,0,1-11.62,0c0-3.21,2.6-11.79,5.81-11.79S70.94,35.85,70.94,39.06Z"/><path class="cls-4" d="M78.46,33.87a5.82,5.82,0,0,1-10.07,5.82c-1.6-2.78-3.63-11.51-.85-13.12S76.86,31.09,78.46,33.87Z"/><path class="cls-4" d="M82.38,25.62a5.81,5.81,0,1,1-5.81,10.07c-2.78-1.6-8.91-8.14-7.3-10.92S79.6,24,82.38,25.62Z"/><path class="cls-4" d="M81.65,16.52a5.82,5.82,0,0,1,0,11.63c-3.21,0-11.79-2.61-11.79-5.82S78.44,16.52,81.65,16.52Z"/><path class="cls-4" d="M76.46,9a5.82,5.82,0,0,1,5.82,10.07c-2.78,1.61-11.51,3.64-13.12.86S73.68,10.61,76.46,9Z"/><path class="cls-4" d="M68.21,5.08A5.82,5.82,0,1,1,78.28,10.9c-1.6,2.78-8.14,8.9-10.92,7.29S66.61,7.86,68.21,5.08Z"/><path class="cls-4" d="M59.11,5.81a5.82,5.82,0,0,1,11.63,0c0,3.21-2.61,11.79-5.82,11.79S59.11,9,59.11,5.81Z"/><path class="cls-4" d="M51.59,11A5.81,5.81,0,0,1,61.66,5.19c1.6,2.78,3.64,11.5.86,13.11S53.2,13.78,51.59,11Z"/><path class="cls-4" d="M47.67,19.25A5.82,5.82,0,1,1,53.49,9.18c2.78,1.61,8.9,8.15,7.29,10.93S50.45,20.86,47.67,19.25Z"/><path class="cls-4" d="M48.4,28.35a5.81,5.81,0,1,1,0-11.62c3.21,0,11.79,2.6,11.79,5.81S51.61,28.35,48.4,28.35Z"/><path class="cls-4" d="M53.59,35.87A5.81,5.81,0,0,1,47.78,25.8c2.78-1.6,11.5-3.63,13.11-.85S56.37,34.27,53.59,35.87Z"/><path class="cls-4" d="M61.84,39.79A5.81,5.81,0,0,1,51.77,34c1.61-2.78,8.15-8.91,10.93-7.3S63.45,37,61.84,39.79Z"/><circle class="cls-5" cx="91.17" cy="38.09" r="1.02"/><path class="cls-5" d="M110.88,40a5.82,5.82,0,1,1-11.63,0c0-3.21,2.61-11.78,5.82-11.78S110.88,36.74,110.88,40Z"/><path class="cls-5" d="M118.4,34.77a5.81,5.81,0,1,1-10.07,5.81c-1.61-2.78-3.64-11.5-.86-13.11S116.79,32,118.4,34.77Z"/><path class="cls-5" d="M122.32,26.52a5.82,5.82,0,1,1-5.82,10.07c-2.78-1.61-8.9-8.15-7.29-10.93S119.54,24.91,122.32,26.52Z"/><path class="cls-5" d="M121.59,17.41a5.82,5.82,0,0,1,0,11.63c-3.22,0-11.79-2.6-11.79-5.81S118.37,17.41,121.59,17.41Z"/><path class="cls-5" d="M116.4,9.9A5.81,5.81,0,1,1,122.21,20c-2.78,1.6-11.5,3.63-13.11.85S113.62,11.5,116.4,9.9Z"/><path class="cls-5" d="M108.15,6a5.81,5.81,0,1,1,10.07,5.81c-1.61,2.78-8.15,8.91-10.93,7.3S106.54,8.76,108.15,6Z"/><path class="cls-5" d="M99,6.71a5.82,5.82,0,0,1,11.63,0c0,3.21-2.6,11.78-5.81,11.78S99,9.92,99,6.71Z"/><path class="cls-5" d="M91.53,11.9A5.82,5.82,0,1,1,101.6,6.08c1.6,2.78,3.63,11.51.85,13.11S93.13,14.68,91.53,11.9Z"/><path class="cls-5" d="M87.61,20.15a5.81,5.81,0,1,1,5.81-10.07c2.78,1.6,8.91,8.14,7.3,10.92S90.39,21.75,87.61,20.15Z"/><path class="cls-5" d="M88.34,29.25a5.82,5.82,0,0,1,0-11.63c3.21,0,11.78,2.61,11.78,5.82S91.55,29.25,88.34,29.25Z"/><path class="cls-5" d="M93.53,36.77A5.82,5.82,0,1,1,87.71,26.7c2.78-1.61,11.51-3.64,13.11-.86S96.31,35.16,93.53,36.77Z"/><path class="cls-5" d="M101.78,40.69a5.82,5.82,0,0,1-10.07-5.82c1.6-2.78,8.14-8.9,10.92-7.3S103.38,37.91,101.78,40.69Z"/><circle class="cls-3" cx="94.51" cy="80.66" r="1.02"/><path class="cls-3" d="M114.22,82.52a5.82,5.82,0,0,1-11.63,0c0-3.21,2.6-11.78,5.82-11.78S114.22,79.31,114.22,82.52Z"/><path class="cls-3" d="M121.74,77.33a5.82,5.82,0,1,1-10.07,5.82c-1.61-2.78-3.64-11.51-.86-13.11S120.13,74.55,121.74,77.33Z"/><path class="cls-3" d="M125.66,69.08a5.82,5.82,0,0,1-5.82,10.07c-2.78-1.6-8.9-8.14-7.3-10.92S122.88,67.48,125.66,69.08Z"/><path class="cls-3" d="M124.92,60a5.82,5.82,0,1,1,0,11.63c-3.21,0-11.78-2.61-11.78-5.82S121.71,60,124.92,60Z"/><path class="cls-3" d="M119.74,52.46a5.81,5.81,0,1,1,5.81,10.07c-2.78,1.61-11.5,3.64-13.11.86S117,54.07,119.74,52.46Z"/><path class="cls-3" d="M111.49,48.54a5.82,5.82,0,0,1,10.07,5.82c-1.61,2.78-8.15,8.9-10.93,7.3S109.88,51.32,111.49,48.54Z"/><path class="cls-3" d="M102.38,49.28a5.82,5.82,0,1,1,11.63,0c0,3.21-2.6,11.78-5.81,11.78S102.38,52.49,102.38,49.28Z"/><path class="cls-3" d="M94.87,54.46a5.81,5.81,0,1,1,10.06-5.81c1.61,2.78,3.64,11.5.86,13.11S96.47,57.24,94.87,54.46Z"/><path class="cls-3" d="M91,62.71a5.81,5.81,0,0,1,5.81-10.07c2.78,1.61,8.9,8.15,7.3,10.93S93.73,64.32,91,62.71Z"/><path class="cls-3" d="M91.68,71.82a5.82,5.82,0,0,1,0-11.63c3.21,0,11.78,2.6,11.78,5.81S94.89,71.82,91.68,71.82Z"/><path class="cls-3" d="M96.86,79.33a5.81,5.81,0,1,1-5.81-10.07c2.78-1.6,11.51-3.63,13.11-.85S99.65,77.73,96.86,79.33Z"/><path class="cls-3" d="M105.12,83.25a5.81,5.81,0,1,1-10.07-5.81c1.6-2.78,8.14-8.91,10.92-7.3S106.72,80.47,105.12,83.25Z"/><circle class="cls-4" cx="8.65" cy="81.61" r="1.02"/><path class="cls-4" d="M28.35,83.47a5.81,5.81,0,1,1-11.62,0c0-3.21,2.6-11.78,5.81-11.78S28.35,80.26,28.35,83.47Z"/><path class="cls-4" d="M35.87,78.29A5.81,5.81,0,0,1,25.8,84.1C24.2,81.32,22.17,72.59,25,71S34.27,75.51,35.87,78.29Z"/><path class="cls-4" d="M39.79,70A5.81,5.81,0,1,1,34,80.11C31.2,78.5,25.07,72,26.68,69.18S37,68.43,39.79,70Z"/><path class="cls-4" d="M39.06,60.93a5.82,5.82,0,0,1,0,11.63c-3.21,0-11.79-2.6-11.79-5.81S35.85,60.93,39.06,60.93Z"/><path class="cls-4" d="M33.87,53.41a5.82,5.82,0,0,1,5.82,10.07c-2.78,1.61-11.51,3.64-13.12.86S31.09,55,33.87,53.41Z"/><path class="cls-4" d="M25.62,49.5a5.81,5.81,0,1,1,10.07,5.81c-1.6,2.78-8.14,8.9-10.92,7.3S24,52.28,25.62,49.5Z"/><path class="cls-4" d="M16.52,50.23a5.82,5.82,0,1,1,11.63,0c0,3.21-2.61,11.78-5.82,11.78S16.52,53.44,16.52,50.23Z"/><path class="cls-4" d="M9,55.41A5.81,5.81,0,1,1,19.07,49.6c1.61,2.78,3.64,11.51.86,13.11S10.61,58.19,9,55.41Z"/><path class="cls-4" d="M5.08,63.66A5.82,5.82,0,1,1,10.9,53.59c2.78,1.61,8.9,8.15,7.29,10.93S7.86,65.27,5.08,63.66Z"/><path class="cls-4" d="M5.81,72.77a5.82,5.82,0,0,1,0-11.63C9,61.14,17.6,63.74,17.6,67S9,72.77,5.81,72.77Z"/><path class="cls-4" d="M11,80.29A5.81,5.81,0,0,1,5.19,70.22c2.78-1.61,11.5-3.64,13.11-.86S13.78,78.68,11,80.29Z"/><path class="cls-4" d="M19.25,84.21A5.82,5.82,0,0,1,9.18,78.39c1.61-2.78,8.15-8.9,10.93-7.3S20.86,81.42,19.25,84.21Z"/><circle class="cls-5" cx="53.1" cy="80.79" r="1.02"/><path class="cls-5" d="M72.81,82.65a5.82,5.82,0,1,1-11.63,0c0-3.21,2.61-11.78,5.82-11.78S72.81,79.44,72.81,82.65Z"/><path class="cls-5" d="M80.33,77.47a5.81,5.81,0,1,1-10.07,5.81c-1.61-2.78-3.64-11.51-.86-13.11S78.72,74.69,80.33,77.47Z"/><path class="cls-5" d="M84.25,69.22a5.82,5.82,0,1,1-5.82,10.07c-2.78-1.61-8.9-8.15-7.29-10.93S81.47,67.61,84.25,69.22Z"/><path class="cls-5" d="M83.52,60.11a5.82,5.82,0,0,1,0,11.63c-3.21,0-11.79-2.6-11.79-5.81S80.31,60.11,83.52,60.11Z"/><path class="cls-5" d="M78.33,52.59a5.81,5.81,0,1,1,5.81,10.07c-2.78,1.61-11.5,3.64-13.11.86S75.55,54.2,78.33,52.59Z"/><path class="cls-5" d="M70.08,48.68a5.81,5.81,0,0,1,10.07,5.81c-1.61,2.78-8.15,8.9-10.93,7.3S68.47,51.46,70.08,48.68Z"/><path class="cls-5" d="M61,49.41a5.81,5.81,0,1,1,11.62,0c0,3.21-2.6,11.78-5.81,11.78S61,52.62,61,49.41Z"/><path class="cls-5" d="M53.46,54.59a5.81,5.81,0,1,1,10.07-5.81c1.6,2.78,3.63,11.51.85,13.11S55.06,57.37,53.46,54.59Z"/><path class="cls-5" d="M49.54,62.84a5.81,5.81,0,1,1,5.81-10.06c2.78,1.6,8.91,8.14,7.3,10.92S52.32,64.45,49.54,62.84Z"/><path class="cls-5" d="M50.27,72a5.82,5.82,0,0,1,0-11.63c3.21,0,11.78,2.6,11.78,5.82S53.48,72,50.27,72Z"/><path class="cls-5" d="M55.46,79.47A5.82,5.82,0,1,1,49.64,69.4c2.78-1.61,11.51-3.64,13.11-.86S58.24,77.86,55.46,79.47Z"/><path class="cls-5" d="M63.71,83.39a5.82,5.82,0,0,1-10.07-5.82c1.6-2.78,8.14-8.9,10.92-7.3S65.31,80.6,63.71,83.39Z"/></pattern></defs><path class="cls-6" d="M445.7,323.81c-6.29,10.46-13.48,25.24-28.73,34.09-4.15,2.41-29.82,17.29-41.42,8.1-5.3-4.21-3.41-10.07-8.39-13.41-9.41-6.31-27.61,7-35.56,11.37-28.8,16-66.5-4.1-154.84-45.22-91-42.36-101.39-44.45-101-51.69.88-15,47-34,265.49-47.79,0,0,47.57,92.74,104.41,104.55" transform="translate(-75.29 -218.74)"/></svg>