<svg id="圖層_5" data-name="圖層 5" xmlns="http://www.w3.org/2000/svg" xmlns:xlink="http://www.w3.org/1999/xlink" viewBox="0 0 370.84 151.23"><defs><style>.cls-1{fill:none;}.cls-2{fill:#f5f18c;}.cls-3{fill:#f39800;}.cls-4{stroke:#f39800;stroke-miterlimit:10;fill:url(#新增圖樣色票_5);}</style><pattern id="新增圖樣色票_5" data-name="新增圖樣色票 5" width="165.15" height="144.36" patternUnits="userSpaceOnUse" viewBox="0 0 165.15 144.36"><rect class="cls-1" width="165.15" height="144.36"/><rect class="cls-2" width="165.15" height="144.36"/><ellipse class="cls-3" cx="24.89" cy="26.59" rx="24.89" ry="26.59"/><ellipse class="cls-3" cx="27.47" cy="117.32" rx="24.89" ry="26.59"/><ellipse class="cls-3" cx="140.26" cy="116.96" rx="24.89" ry="26.59"/><ellipse class="cls-3" cx="82.57" cy="70.76" rx="24.89" ry="26.59"/><ellipse class="cls-3" cx="140.26" cy="27.39" rx="24.89" ry="26.59"/></pattern></defs><path class="cls-4" d="M471.55,357.89c-6.29,10.46-13.47,25.24-28.73,34.09-4.15,2.41-29.82,17.29-41.42,8.1-5.3-4.21-3.4-10.07-8.39-13.41-9.41-6.31-27.6,6.95-35.56,11.37-28.8,16-66.49-4.1-154.83-45.22-91-42.36-101.39-44.45-101-51.69.89-15,47-34,265.5-47.79,0,0,47.56,92.74,104.4,104.55" transform="translate(-101.14 -252.82)"/></svg>