<svg id="圖層_1" data-name="圖層 1" xmlns="http://www.w3.org/2000/svg" xmlns:xlink="http://www.w3.org/1999/xlink" viewBox="0 0 311.55 126.22"><defs><style>.cls-1{fill:none;}.cls-2{fill:#88c461;}.cls-3{fill:#f39800;}.cls-4{stroke:#98ca6a;stroke-miterlimit:10;fill:url(#新增圖樣色票_2);}</style><pattern id="新增圖樣色票_2" data-name="新增圖樣色票 2" width="131.39" height="131.39" patternUnits="userSpaceOnUse" viewBox="0 0 131.39 131.39"><rect class="cls-1" width="131.39" height="131.39"/><polygon class="cls-2" points="77.59 131.39 131.39 131.39 131.39 77.59 77.59 131.39"/><polygon class="cls-2" points="0 0 0 53.51 53.51 0 0 0"/><polygon class="cls-2" points="131.39 0 86.59 0 0 86.59 0 131.39 44.51 131.39 131.39 44.51 131.39 0"/><polygon class="cls-3" points="53.51 0 0 53.51 0 86.59 86.59 0 53.51 0"/><polygon class="cls-3" points="131.39 44.51 44.51 131.39 77.59 131.39 131.39 77.59 131.39 44.51"/></pattern></defs><path class="cls-4" d="M336.78,183.11a74.3,74.3,0,0,1-26.24,26.32c-3.47,2-24.86,14.42-34.53,6.75-4.42-3.5-2.84-8.39-7-11.17-7.84-5.26-23,5.79-29.64,9.48-24,13.35-55.42-3.42-129.06-37.69-75.86-35.31-84.5-37.05-84.15-43.09.74-12.51,39.18-28.36,221.29-39.84,0,0,39.65,77.3,87,87.15" transform="translate(-25.66 -93.36)"/></svg>