<svg id="圖層_6" data-name="圖層 6" xmlns="http://www.w3.org/2000/svg" xmlns:xlink="http://www.w3.org/1999/xlink" viewBox="0 0 372.67 150.21"><defs><style>.cls-1{fill:none;}.cls-2{fill:#f2ef81;}.cls-3{fill:#e60012;}.cls-4{fill:url(#新增圖樣色票_6);}</style><pattern id="新增圖樣色票_6" data-name="新增圖樣色票 6" width="138.27" height="138.27" patternUnits="userSpaceOnUse" viewBox="0 0 138.27 138.27"><rect class="cls-1" width="138.27" height="138.27"/><polygon class="cls-2" points="66.14 138.27 69.82 138.27 67.98 136.43 66.14 138.27"/><polygon class="cls-2" points="40.31 85.41 56.31 69.42 37.84 50.94 21.84 66.94 40.31 85.41"/><polygon class="cls-2" points="40.31 108.76 10.8 138.27 42.8 138.27 56.31 124.76 40.31 108.76"/><polygon class="cls-2" points="79.66 124.76 93.17 138.27 125.16 138.27 95.65 108.76 79.66 124.76"/><polygon class="cls-2" points="56.31 9.12 47.18 0 10.24 0 37.84 27.6 56.31 9.12"/><polygon class="cls-2" points="67.98 113.08 83.98 97.09 67.98 81.09 51.98 97.09 67.98 113.08"/><polygon class="cls-2" points="98.13 27.6 125.72 0 88.78 0 79.66 9.12 98.13 27.6"/><polygon class="cls-2" points="125.8 55.27 138.27 42.8 138.27 10.8 109.8 39.27 125.8 55.27"/><polygon class="cls-2" points="98.13 50.94 79.66 69.42 95.65 85.41 114.12 66.94 98.13 50.94"/><polygon class="cls-2" points="10.16 78.61 0 88.78 0 125.72 28.64 97.09 10.16 78.61"/><polygon class="cls-2" points="67.98 20.8 49.51 39.27 67.98 57.74 86.45 39.27 67.98 20.8"/><polygon class="cls-2" points="26.16 39.27 0 13.11 0 45.1 10.16 55.27 26.16 39.27"/><polygon class="cls-2" points="107.33 97.09 138.27 128.03 138.27 91.08 125.8 78.61 107.33 97.09"/><polygon class="cls-2" points="138.27 67.74 138.27 66.14 137.47 66.94 138.27 67.74"/><polygon class="cls-3" points="51.98 97.09 67.98 81.09 56.31 69.42 40.31 85.41 51.98 97.09"/><polygon class="cls-3" points="109.8 39.27 138.27 10.8 138.27 0 125.72 0 98.13 27.6 109.8 39.27"/><polygon class="cls-3" points="86.45 39.27 67.98 57.74 79.66 69.42 98.13 50.94 86.45 39.27"/><polygon class="cls-3" points="28.64 97.09 0 125.72 0 138.27 10.8 138.27 40.31 108.76 28.64 97.09"/><polygon class="cls-3" points="79.66 124.76 95.65 108.76 83.98 97.09 67.98 113.08 79.66 124.76"/><polygon class="cls-3" points="114.12 66.94 95.65 85.41 107.33 97.09 125.8 78.61 114.12 66.94"/><polygon class="cls-3" points="137.47 66.94 138.27 66.14 138.27 42.8 125.8 55.27 137.47 66.94"/><polygon class="cls-3" points="56.31 124.76 42.8 138.27 66.14 138.27 67.98 136.43 56.31 124.76"/><polygon class="cls-3" points="56.31 9.12 37.84 27.6 49.51 39.27 67.98 20.8 56.31 9.12"/><polygon class="cls-3" points="0 68.45 0 88.78 10.16 78.61 0 68.45"/><polygon class="cls-3" points="88.78 0 70.53 0 79.66 9.12 88.78 0"/><polygon class="cls-3" points="21.84 66.94 37.84 50.94 26.16 39.27 10.16 55.27 21.84 66.94"/><polygon class="cls-3" points="107.33 97.09 95.65 85.41 79.66 69.42 67.98 57.74 49.51 39.27 37.84 27.6 10.24 0 0 0 0 13.11 26.16 39.27 37.84 50.94 56.31 69.42 67.98 81.09 83.98 97.09 95.65 108.76 125.16 138.27 138.27 138.27 138.27 128.03 107.33 97.09"/><polygon class="cls-3" points="67.98 113.08 51.98 97.09 40.31 85.41 21.84 66.94 10.16 55.27 0 45.1 0 68.45 10.16 78.61 28.64 97.09 40.31 108.76 56.31 124.76 67.98 136.43 69.82 138.27 93.17 138.27 79.66 124.76 67.98 113.08"/><polygon class="cls-3" points="67.98 20.8 86.45 39.27 98.13 50.94 114.12 66.94 125.8 78.61 138.27 91.08 138.27 67.74 137.47 66.94 125.8 55.27 109.8 39.27 98.13 27.6 79.66 9.12 70.53 0 47.18 0 56.31 9.12 67.98 20.8"/></pattern></defs><path class="cls-4" d="M461.52,292.27A89.28,89.28,0,0,1,430,323.85c-4.15,2.4-29.81,17.29-41.42,8.09-5.3-4.2-3.4-10.06-8.39-13.4-9.41-6.31-27.6,6.95-35.56,11.37-28.8,16-66.49-4.1-154.83-45.22-91-42.36-101.39-44.45-101-51.7.89-15,47-34,265.5-47.79,0,0,50.32,95.26,107.16,107.07" transform="translate(-88.85 -185.2)"/></svg>