<svg id="圖層_4" data-name="圖層 4" xmlns="http://www.w3.org/2000/svg" xmlns:xlink="http://www.w3.org/1999/xlink" viewBox="0 0 370.84 151.23"><defs><style>.cls-1{fill:none;}.cls-2{fill:#6764ac;}.cls-3{fill:#fff;}.cls-4{stroke:#1d2088;stroke-miterlimit:10;fill:url(#新增圖樣色票_4);}</style><pattern id="新增圖樣色票_4" data-name="新增圖樣色票 4" width="138.68" height="106.46" patternUnits="userSpaceOnUse" viewBox="0 0 138.68 106.46"><rect class="cls-1" width="138.68" height="106.46"/><rect class="cls-2" y="0.53" width="136.93" height="105.94"/><circle class="cls-3" cx="17.05" cy="17.96" r="16"/><polygon class="cls-3" points="63.08 34.55 51.85 28.65 40.62 34.55 42.77 22.05 33.69 13.2 46.24 11.37 51.85 0 57.47 11.37 70.02 13.2 60.93 22.05 63.08 34.55"/><circle class="cls-3" cx="83.97" cy="18.02" r="16"/><polygon class="cls-3" points="129.99 34.62 118.77 28.71 107.54 34.62 109.68 22.11 100.6 13.26 113.15 11.44 118.77 0.06 124.38 11.44 136.93 13.26 127.85 22.11 129.99 34.62"/><circle class="cls-3" cx="53.59" cy="53.43" r="16"/><polygon class="cls-3" points="30.6 69.74 19.38 63.84 8.15 69.74 10.29 57.24 1.21 48.38 13.76 46.56 19.38 35.19 24.99 46.56 37.54 48.38 28.46 57.24 30.6 69.74"/><circle class="cls-3" cx="120.5" cy="53.49" r="16"/><polygon class="cls-3" points="99.52 69.8 88.29 63.9 77.06 69.8 79.21 57.3 70.13 48.45 82.68 46.62 88.29 35.25 93.91 46.62 106.46 48.45 97.38 57.3 99.52 69.8"/><circle class="cls-3" cx="18.8" cy="88.4" r="16"/><polygon class="cls-3" points="64.82 104.99 53.59 99.08 42.37 104.99 44.51 92.49 35.43 83.63 47.98 81.81 53.59 70.43 59.21 81.81 71.76 83.63 62.68 92.49 64.82 104.99"/><circle class="cls-3" cx="85.71" cy="88.46" r="16"/><polygon class="cls-3" points="131.74 105.05 120.51 99.15 109.28 105.05 111.43 92.55 102.34 83.69 114.9 81.87 120.51 70.5 126.12 81.87 138.68 83.69 129.59 92.55 131.74 105.05"/></pattern></defs><path class="cls-4" d="M459.63,415.21c-6.29,10.47-13.47,25.25-28.73,34.1-4.15,2.4-29.82,17.29-41.42,8.09-5.3-4.2-3.41-10.06-8.39-13.4-9.41-6.31-27.61,6.94-35.56,11.37-28.8,16-66.5-4.11-154.84-45.22-91-42.36-101.39-44.45-101-51.7.89-15,47-34,265.49-47.79,0,0,47.57,92.74,104.41,104.55" transform="translate(-89.22 -310.14)"/></svg>