<svg id="圖層_7" data-name="圖層 7" xmlns="http://www.w3.org/2000/svg" xmlns:xlink="http://www.w3.org/1999/xlink" viewBox="0 0 373.6 151.23"><defs><style>.cls-1{fill:none;}.cls-2{fill:#fff;}.cls-3{stroke:#231815;stroke-miterlimit:10;fill:url(#Unnamed_Pattern_10);}</style><pattern id="Unnamed_Pattern_10" data-name="Unnamed Pattern 10" width="156.84" height="156.84" patternUnits="userSpaceOnUse" viewBox="0 0 156.84 156.84"><rect class="cls-1" width="156.84" height="156.84"/><polygon class="cls-1" points="1 0.27 156.84 0.27 156.84 0 0 0 0 156.84 1 156.84 1 0.27"/><path d="M1,.27H156.84V156.84H1ZM11,48.16A41.07,41.07,0,0,0,25.46,79.48a41.19,41.19,0,0,0,55.08,60.76A41.18,41.18,0,0,0,143,87,41.19,41.19,0,0,0,87.45,26.84,41.2,41.2,0,0,0,11,48.16Z"/><path class="cls-2" d="M25.46,79.48a41.19,41.19,0,0,1,46.4-10.19A41.16,41.16,0,0,1,87.45,26.84a41.19,41.19,0,1,0-62,52.64Z"/><path class="cls-2" d="M68.46,111.1a41,41,0,0,1,10.13-27,40.81,40.81,0,0,1-6.73-14.77,41.19,41.19,0,1,0,8.68,71A41,41,0,0,1,68.46,111.1Z"/><path class="cls-2" d="M70.78,59.94a41.23,41.23,0,0,0,7.81,24.12A41.17,41.17,0,0,1,143,87a41.19,41.19,0,1,0-72.25-27Z"/><path class="cls-2" d="M109.65,69.91A41.21,41.21,0,1,0,143,87,41.07,41.07,0,0,0,109.65,69.91Z"/></pattern></defs><path class="cls-3" d="M446.85,285.85a89.36,89.36,0,0,1-31.49,31.58c-4.15,2.4-29.82,17.29-41.42,8.09-5.3-4.2-3.41-10.06-8.39-13.4-9.41-6.31-27.61,6.95-35.56,11.37-28.8,16-66.5-4.1-154.84-45.22-91-42.36-101.39-44.45-101-51.7.88-15,47-34,265.49-47.79,0,0,50.33,95.26,107.17,107.07" transform="translate(-73.68 -178.26)"/></svg>