<svg id="圖層_3" data-name="圖層 3" xmlns="http://www.w3.org/2000/svg" xmlns:xlink="http://www.w3.org/1999/xlink" viewBox="0 0 369.91 150.21"><defs><style>.cls-1{fill:none;}.cls-2{fill:#fff;}.cls-3{fill:#f8f4a8;}.cls-4{fill:#cce5c2;}.cls-5{fill:#90d3ef;}.cls-6{fill:#f6b080;}.cls-7{fill:url(#新增圖樣色票_1);}</style><pattern id="新增圖樣色票_1" data-name="新增圖樣色票 1" width="118.28" height="79" patternUnits="userSpaceOnUse" viewBox="0 0 118.28 79"><rect class="cls-1" width="118.28" height="79"/><rect class="cls-2" width="117" height="79"/><rect class="cls-3" width="29" height="79"/><rect class="cls-4" x="29" width="30" height="79"/><rect class="cls-5" x="59.5" width="29" height="79"/><rect class="cls-6" x="86.5" width="31.78" height="79"/></pattern></defs><path class="cls-7" d="M431,338.63c-6.29,10.46-13.48,25.24-28.74,34.09-4.15,2.41-29.81,17.29-41.41,8.09-5.31-4.2-3.41-10.06-8.39-13.4-9.42-6.31-27.61,6.95-35.57,11.37-28.79,16-66.49-4.1-154.83-45.22-91-42.36-101.39-44.45-101-51.7.88-15,47-34,265.49-47.78,0,0,47.57,92.74,104.41,104.55" transform="translate(-61.1 -234.08)"/></svg>